<svg xmlns="http://www.w3.org/2000/svg" viewBox="0 0 500 500">
    <g id="freepik--background-complete--inject-251">
        <path
            d="M116.77,19.36s-62.5,34.7-67.24,36.58c0,0-23.32,68.06-25.21,73.31,0,0,34.68,64.44,37.42,70l81.95,25.07s60.43-37,69.85-39.67c0,0,14.93-71.46,15.94-74.76,0,0-36.17-60.46-37.35-67.48C192.13,42.41,119.08,20.89,116.77,19.36Z"
            style="fill:#f5f5f5"></path>
        <path
            d="M190.9,41.42c.11.09-12.83,15.72-28.9,34.89S132.8,111,132.69,110.88,145.52,95.16,161.6,76,190.79,41.33,190.9,41.42Z"
            style="fill:#e0e0e0"></path>
        <path
            d="M230.4,109.76l-.23-.12-.62-.39a9.87,9.87,0,0,0-1-.59,15.47,15.47,0,0,0-1.46-.71A26.91,26.91,0,0,0,216.92,106c-4.39-.12-9.61.44-15.42.84l-18.88,1.38-34.32,2.4-10.4.67-2.83.15-.74,0a1,1,0,0,1-.25,0,1,1,0,0,1,.25,0l.73-.08,2.83-.25,10.39-.84,34.3-2.55,18.89-1.34c5.8-.37,11-.89,15.46-.73a26.32,26.32,0,0,1,10.2,2.1A14.1,14.1,0,0,1,230.4,109.76Z"
            style="fill:#e0e0e0"></path>
        <path
            d="M214.31,185.06a1.32,1.32,0,0,1-.21-.19l-.59-.59L211.29,182c-1.91-2-4.7-4.86-8.2-8.35s-7.73-7.59-12.52-12-10.15-9.24-15.9-14.12-11.37-9.38-16.53-13.39-9.91-7.5-13.93-10.38-7.3-5.17-9.59-6.73L132,115.16l-.67-.49c-.15-.11-.23-.17-.22-.18a2.28,2.28,0,0,1,.25.14l.7.44,2.68,1.73c2.32,1.51,5.63,3.76,9.68,6.6s8.81,6.33,14,10.3,10.81,8.49,16.58,13.37,11.1,9.7,15.89,14.17,9,8.6,12.45,12.14,6.23,6.43,8.09,8.48l2.15,2.35.55.62C214.26,185,214.32,185.05,214.31,185.06Z"
            style="fill:#e0e0e0"></path>
        <path
            d="M145.2,224.34a.87.87,0,0,1,0-.28c0-.21-.06-.48-.1-.81l-.33-3.16c-.28-2.77-.68-6.72-1.17-11.59-1-9.79-2.42-23.31-4.18-38.22s-3.53-28.39-4.85-38.14c-.66-4.85-1.19-8.78-1.56-11.55-.18-1.33-.32-2.38-.42-3.14,0-.33-.07-.6-.09-.82a.86.86,0,0,1,0-.28,2,2,0,0,1,.06.27c0,.22.09.48.15.82q.18,1.13.51,3.12c.43,2.72,1,6.66,1.73,11.53,1.41,9.74,3.23,23.21,5,38.13s3.14,28.44,4,38.24c.45,4.9.8,8.87,1,11.62.1,1.34.18,2.4.23,3.16,0,.33,0,.6,0,.82A1,1,0,0,1,145.2,224.34Z"
            style="fill:#e0e0e0"></path>
        <path
            d="M131,113.78a1.58,1.58,0,0,1-.17.23l-.55.62L128.13,117c-1.86,2-4.53,5-7.81,8.72-6.56,7.39-15.46,17.74-24.91,29.48S77.76,177.87,72,185.87c-2.91,4-5.24,7.24-6.84,9.49-.79,1.1-1.41,2-1.85,2.59l-.5.66a1.19,1.19,0,0,1-.18.22s0-.09.14-.25.26-.41.45-.69L65,195.25c1.54-2.3,3.83-5.58,6.7-9.6,5.74-8.05,13.9-19,23.35-30.78s18.41-22.07,25-29.4c3.31-3.67,6-6.6,7.93-8.61l2.2-2.3.58-.59C130.89,113.84,131,113.77,131,113.78Z"
            style="fill:#e0e0e0"></path>
        <path
            d="M130.15,113.23a.87.87,0,0,1-.28,0l-.81.07-3.13.24-11.5.8c-9.71.69-23.13,1.66-37.86,3.5-7.37.94-14.36,2-20.68,3.21-3.16.63-6.16,1.19-9,1.84-1.39.32-2.75.6-4,.92l-3.71.92c-2.37.56-4.48,1.19-6.34,1.7s-3.46,1-4.76,1.4l-3,.9-.78.23a1,1,0,0,1-.27.06s.08,0,.25-.11l.77-.28,3-1c1.29-.44,2.88-1,4.74-1.48s4-1.19,6.33-1.78l3.7-1c1.29-.32,2.64-.61,4-.94,2.78-.67,5.79-1.25,8.95-1.89,6.33-1.19,13.33-2.32,20.7-3.26,14.76-1.84,28.19-2.75,37.91-3.35l11.51-.63,3.14-.14.81,0Z"
            style="fill:#e0e0e0"></path>
        <path
            d="M132,115.07s-.07,0-.21-.16l-.59-.51-2.22-2c-.95-.88-2.13-1.94-3.52-3.15s-2.94-2.62-4.71-4.12c-3.51-3-7.77-6.54-12.57-10.34S98,87,92.18,82.91s-11.44-7.73-16.64-11-10-6-14-8.29c-2-1.16-3.86-2.14-5.47-3S53,59,51.89,58.37L49.26,57l-.68-.38c-.15-.08-.23-.13-.22-.14a.75.75,0,0,1,.25.1l.7.33L52,58.19c1.16.57,2.58,1.29,4.2,2.16s3.5,1.82,5.52,3c4.07,2.22,8.85,5,14.08,8.21s10.88,6.91,16.69,11,11.18,8.13,16,11.93,9,7.37,12.52,10.45c1.76,1.51,3.3,2.93,4.67,4.17s2.52,2.32,3.46,3.22l2.16,2.07.55.54A1.13,1.13,0,0,1,132,115.07Z"
            style="fill:#e0e0e0"></path>
        <path
            d="M132.5,113.37a.92.92,0,0,1-.09-.23l-.22-.69c-.18-.61-.47-1.5-.77-2.67-.63-2.32-1.4-5.73-2.13-10s-1.35-9.35-1.84-15-.88-11.93-1.34-18.48-1.06-12.78-1.9-18.41a119.66,119.66,0,0,0-3-14.78,87.37,87.37,0,0,0-3.26-9.64c-.43-1.12-.84-2-1.08-2.55l-.27-.67a.88.88,0,0,1-.08-.23s0,.06.13.21l.32.64c.26.58.71,1.41,1.16,2.52A79.1,79.1,0,0,1,121.51,33a114.27,114.27,0,0,1,3.18,14.81c.86,5.64,1.46,11.88,1.94,18.44s.82,12.81,1.3,18.48,1,10.76,1.73,15,1.39,7.66,2,10c.26,1.18.53,2.07.67,2.69.07.29.12.52.17.7A1.15,1.15,0,0,1,132.5,113.37Z"
            style="fill:#e0e0e0"></path>
        <path d="M136.51,115.58a5.17,5.17,0,1,1-3.43-6.45A5.17,5.17,0,0,1,136.51,115.58Z" style="fill:#e0e0e0"></path>
        <path
            d="M60.33,173.05a5.27,5.27,0,0,1-.57-1.13l-1.43-3.1c-1.22-2.62-3-6.19-5.2-10S48.7,151.7,47,149.34l-2-2.78a6.7,6.7,0,0,1-.7-1.05,5.16,5.16,0,0,1,.86.92c.52.62,1.25,1.54,2.12,2.69a97.83,97.83,0,0,1,6.24,9.44,98.46,98.46,0,0,1,5.09,10.1c.57,1.33,1,2.42,1.28,3.18A6.76,6.76,0,0,1,60.33,173.05Z"
            style="fill:#e0e0e0"></path>
        <path
            d="M130.58,208.17a9.21,9.21,0,0,1-1.64-.07c-1-.08-2.58-.24-4.45-.47a130.76,130.76,0,0,1-28.65-7.1c-1.77-.67-3.19-1.24-4.16-1.66a9,9,0,0,1-1.49-.71,11.56,11.56,0,0,1,1.56.52c1,.36,2.43.88,4.21,1.5,3.57,1.24,8.54,2.82,14.13,4.21s10.72,2.3,14.45,2.87c1.86.29,3.38.5,4.42.64A10.47,10.47,0,0,1,130.58,208.17Z"
            style="fill:#e0e0e0"></path>
        <path
            d="M195.5,179.62a7,7,0,0,1-1.05,1c-.7.65-1.75,1.55-3.06,2.63A112.92,112.92,0,0,1,169,197.59c-1.54.74-2.79,1.3-3.67,1.66a7.12,7.12,0,0,1-1.39.52,8.09,8.09,0,0,1,1.3-.7c.86-.42,2.09-1,3.6-1.81,3-1.55,7.14-3.81,11.51-6.6s8.15-5.57,10.83-7.65c1.34-1,2.42-1.9,3.15-2.5A9.54,9.54,0,0,1,195.5,179.62Z"
            style="fill:#e0e0e0"></path>
        <path
            d="M213.79,119.14a11.75,11.75,0,0,1,.08,1.67c0,1.08,0,2.64-.07,4.56a108.7,108.7,0,0,1-1.69,14.93,110.2,110.2,0,0,1-3.76,14.56c-.62,1.82-1.15,3.28-1.56,4.28a9.4,9.4,0,0,1-.68,1.53,9.87,9.87,0,0,1,.49-1.6c.35-1,.83-2.49,1.4-4.33a125.84,125.84,0,0,0,5.43-29.39c.12-1.92.2-3.47.24-4.54A9.42,9.42,0,0,1,213.79,119.14Z"
            style="fill:#e0e0e0"></path>
        <path
            d="M205.45,89.37a8.07,8.07,0,0,1-.47-1.45c-.26-.94-.67-2.29-1.22-4a81.6,81.6,0,0,0-12.63-24c-1.06-1.39-1.94-2.49-2.57-3.24a7.31,7.31,0,0,1-.92-1.21,10,10,0,0,1,1.07,1.08c.68.71,1.61,1.78,2.71,3.14a72.3,72.3,0,0,1,12.69,24.11c.5,1.68.86,3,1.06,4A9.71,9.71,0,0,1,205.45,89.37Z"
            style="fill:#e0e0e0"></path>
        <path
            d="M166.19,42.92a7,7,0,0,1-1.42-.15c-.9-.13-2.2-.36-3.8-.67-3.21-.63-7.6-1.65-12.37-3.09s-9-3-12-4.29c-1.5-.62-2.71-1.16-3.53-1.55a8.41,8.41,0,0,1-1.27-.65,6.22,6.22,0,0,1,1.34.46l3.6,1.4c3,1.17,7.27,2.69,12,4.13S157.87,41,161,41.74l3.77.83A7.16,7.16,0,0,1,166.19,42.92Z"
            style="fill:#e0e0e0"></path>
        <path
            d="M100.16,41.33a7.79,7.79,0,0,1-1.32.67l-3.63,1.68c-3.07,1.43-7.26,3.49-11.77,6s-8.49,5-11.33,6.79c-1.36.88-2.48,1.62-3.36,2.18a8.28,8.28,0,0,1-1.26.77,8,8,0,0,1,1.15-.93c.75-.57,1.87-1.37,3.27-2.33,2.79-1.91,6.75-4.43,11.27-6.94S92,44.69,95.06,43.34c1.55-.67,2.82-1.2,3.7-1.53A8.33,8.33,0,0,1,100.16,41.33Z"
            style="fill:#e0e0e0"></path>
        <path
            d="M47.33,98.09a17.22,17.22,0,0,1,.05-3.23c.11-2,.34-4.74.74-7.75s.88-5.74,1.28-7.69a17.63,17.63,0,0,1,.8-3.13,23.45,23.45,0,0,1-.43,3.2c-.32,2-.74,4.68-1.13,7.68s-.69,5.74-.9,7.72A20.66,20.66,0,0,1,47.33,98.09Z"
            style="fill:#e0e0e0"></path>
        <path
            d="M411.55,256.94s37.66,32.5,41.75,41.45,19.89,34.94,22.83,48.05c2.25,10,1.71,11.83,1.71,11.83L300.27,250.45,259,240.69s53.92-9,67.17-7.11,11.17,1.11,11.17,1.11,23.94-2.52,32.28,1.61S391.7,250,394.66,251,407.37,253.28,411.55,256.94Z"
            style="fill:#f5f5f5"></path>
        <path
            d="M259,240.69s37.21-.3,46.71,3.79c0,0,62.82,5.6,102.33,52,5.5-1.12,63.27,36.8,69.77,62.11,0,0-4.47-2.49-6.49,7.83A137.55,137.55,0,0,0,469,385.8s-35.2-19.69-60-14.8c0,0-38.69-35.15-76.94-40.24,0,0-18.72-37.88-57.73-48.37C274.35,282.39,279.91,254.38,259,240.69Z"
            style="fill:#ebebeb"></path>
        <path
            d="M408,295.5a4.17,4.17,0,0,1,.07.77c0,.55,0,1.27.08,2.19.07,2,.15,4.69.26,8.05.21,6.85.5,16.22.82,26.57s.41,19.79.38,26.6c0,3.4,0,6.15-.09,8.06,0,.91-.05,1.64-.07,2.19a6.42,6.42,0,0,1-.05.76,3.44,3.44,0,0,1-.05-.76q0-.82,0-2.19c0-2-.05-4.7-.08-8.06-.07-6.8-.25-16.2-.53-26.58s-.56-19.78-.67-26.58c-.06-3.4-.09-6.16-.09-8.06,0-.91,0-1.64,0-2.19A4.23,4.23,0,0,1,408,295.5Z"
            style="fill:#e0e0e0"></path>
        <path
            d="M452.68,331.67a2.3,2.3,0,0,1,.22.53c.13.42.31.93.52,1.57.45,1.44,1.06,3.4,1.82,5.79,1.5,5,3.55,11.72,5.81,19.18S465.24,373,466.71,378c.69,2.41,1.25,4.39,1.66,5.84.18.65.32,1.17.43,1.59a2.17,2.17,0,0,1,.11.57,3.07,3.07,0,0,1-.21-.54c-.14-.41-.31-.93-.52-1.57l-1.82-5.79c-1.51-5-3.55-11.72-5.81-19.18s-4.2-14.23-5.67-19.21c-.68-2.41-1.25-4.39-1.66-5.84l-.42-1.6A2,2,0,0,1,452.68,331.67Z"
            style="fill:#e0e0e0"></path>
        <path
            d="M409.2,296.42a8.1,8.1,0,0,1,.33-1.55c.25-1,.58-2.41,1-4.18a92.1,92.1,0,0,0,1.85-14,93.23,93.23,0,0,0-.35-14.12c-.19-1.8-.37-3.25-.52-4.26a8.17,8.17,0,0,1-.16-1.57,10.35,10.35,0,0,1,.36,1.54c.21,1,.45,2.45.68,4.25a79.85,79.85,0,0,1-1.5,28.24c-.42,1.77-.81,3.19-1.13,4.16A9.39,9.39,0,0,1,409.2,296.42Z"
            style="fill:#e0e0e0"></path>
        <path
            d="M305,244.2a7.18,7.18,0,0,1,1.21-.56c.79-.33,1.95-.76,3.39-1.26,2.89-1,6.95-2.18,11.45-3.37s8.59-2.22,11.53-3l3.48-1a6.18,6.18,0,0,1,1.29-.31,7.07,7.07,0,0,1-1.23.5c-.8.3-2,.69-3.44,1.14-2.91.91-7,2-11.49,3.19s-8.56,2.3-11.47,3.21c-1.46.45-2.63.83-3.44,1.1A5.86,5.86,0,0,1,305,244.2Z"
            style="fill:#e0e0e0"></path>
        <path
            d="M274.35,282.39a4.49,4.49,0,0,1,.6-.42l1.79-1.13c1.54-1,3.82-2.34,6.67-4a192,192,0,0,1,23.08-11.11c4.65-1.85,9.16-3.41,13.3-4.71s7.91-2.3,11.1-3.06,5.79-1.31,7.59-1.63l2.08-.37a4,4,0,0,1,.73-.1,3.41,3.41,0,0,1-.71.2l-2.06.47c-1.79.38-4.37,1-7.54,1.79s-6.92,1.85-11.05,3.16-8.61,2.89-13.25,4.73a214.26,214.26,0,0,0-23.09,10.95c-2.87,1.58-5.17,2.88-6.75,3.81L275,282.06A3.45,3.45,0,0,1,274.35,282.39Z"
            style="fill:#e0e0e0"></path>
        <path
            d="M332.08,330.76a4,4,0,0,1,.36-.68l1.13-1.9c1-1.63,2.4-4,4.11-7,3.43-5.93,7.9-14.28,13.21-23.3,2.67-4.5,5.37-8.71,8-12.43,1.33-1.84,2.57-3.61,3.84-5.18.63-.79,1.21-1.57,1.82-2.29l1.74-2.05c1.1-1.33,2.19-2.43,3.12-3.42.47-.5.9-1,1.32-1.38l1.15-1.1,1.62-1.51a3.79,3.79,0,0,1,.59-.5,4.52,4.52,0,0,1-.52.58c-.39.39-.9.92-1.54,1.58l-1.13,1.12c-.4.42-.81.9-1.27,1.4-.91,1-2,2.13-3.06,3.47l-1.71,2.06c-.59.73-1.17,1.51-1.79,2.31-1.25,1.57-2.47,3.34-3.79,5.18-2.56,3.73-5.24,7.93-7.91,12.42-5.29,9-9.82,17.34-13.33,23.23-1.76,2.95-3.2,5.32-4.26,6.92l-1.21,1.85A4.34,4.34,0,0,1,332.08,330.76Z"
            style="fill:#e0e0e0"></path>
        <polygon points="379.42 294.27 325.76 396.63 321.92 393.99 376.33 291.74 379.42 294.27" style="fill:#f5f5f5">
        </polygon>
        <path
            d="M300.68,429.66a14.41,14.41,0,0,0,12.1-7.3l19.83-35.13-6.16-3.48-19.84,35.13a7.32,7.32,0,0,1-11.16,1.92,7,7,0,0,1-1.88-2.55,7.26,7.26,0,0,1,.44-6.75l2.84-4.68a3.54,3.54,0,0,0-1.18-4.87h0a3.55,3.55,0,0,0-4.87,1.19L288,407.82a14.36,14.36,0,0,0,12.72,21.84Z"
            style="fill:#e0e0e0"></path>
        <polygon points="401.61 289.52 384.76 287.95 384.77 287.9 401.61 289.48 401.61 289.52" style="fill:#e0e0e0">
        </polygon>
        <path
            d="M374.05,268a12.85,12.85,0,0,1,.45,2.34c.24,1.44.57,3.43,1,5.62s.89,4.16,1.22,5.59a11.36,11.36,0,0,1,.46,2.33,10.11,10.11,0,0,1-.81-2.24c-.43-1.41-.94-3.37-1.38-5.58s-.71-4.21-.85-5.68A9.67,9.67,0,0,1,374.05,268Z"
            style="fill:#e0e0e0"></path>
        <path
            d="M398.6,286.8a6.74,6.74,0,0,1-1.91.61,34.25,34.25,0,0,1-4.78.78,36.06,36.06,0,0,1-4.83.12,7.25,7.25,0,0,1-2-.25c0-.16,3.05,0,6.77-.39S398.56,286.65,398.6,286.8Z"
            style="fill:#e0e0e0"></path>
        <path
            d="M390.83,280.24a16.79,16.79,0,0,1-3.56,3.7,17.1,17.1,0,0,1-4.27,2.85c-.08-.13,1.78-1.45,3.93-3.25S390.72,280.14,390.83,280.24Z"
            style="fill:#e0e0e0"></path>
        <path
            d="M382.81,273.64a34.37,34.37,0,0,1-1.52,5.62,32.66,32.66,0,0,1-2,5.46,32.09,32.09,0,0,1,1.52-5.62A32.66,32.66,0,0,1,382.81,273.64Z"
            style="fill:#e0e0e0"></path>
        <polygon points="385.24 288.19 373.99 305.1 370.16 302.71 377.32 283.68 385.24 288.19" style="fill:#e0e0e0">
        </polygon>
        <path
            d="M53.49,228.08a14.42,14.42,0,0,1,9.41,10.55l8.59,39.44-6.92,1.51L56,240.14A7.32,7.32,0,0,0,45.88,235a7,7,0,0,0-2.55,1.88,7.24,7.24,0,0,0-1.57,6.58l1.33,5.32a3.54,3.54,0,0,1-2.57,4.3h0a3.55,3.55,0,0,1-4.3-2.58l-1.33-5.31a14.39,14.39,0,0,1,11.83-17.74A14.25,14.25,0,0,1,53.49,228.08Z"
            style="fill:#e0e0e0"></path>
        <path
            d="M48.52,271.33l23.12,44.81s2.73,30.72,4.54,42.51,25.74,83.2,25.74,83.2l7.32-1.56s-6.48-79.31-10.83-91.6S84,315.25,84,315.25l-1.35-6.32-2-44.78-6.71,7-9.63-7.68-4.15,9.93Z"
            style="fill:#f5f5f5"></path>
        <rect x="68.89" y="311.73" width="17.47" height="6.1" rx="1.95"
            transform="translate(-63.93 23.11) rotate(-12.04)" style="fill:#e0e0e0"></rect>
        <path
            d="M102,441h8a0,0,0,0,1,0,0v.32a3.85,3.85,0,0,1-3.85,3.85h-.28a3.85,3.85,0,0,1-3.85-3.85V441a0,0,0,0,1,0,0Z"
            transform="translate(-90.14 31.88) rotate(-12.05)" style="fill:#e0e0e0"></path>
        <path
            d="M105.7,442.16h2.81a0,0,0,0,1,0,0v9.71a1.35,1.35,0,0,1-1.35,1.35H107a1.35,1.35,0,0,1-1.35-1.35v-9.71a0,0,0,0,1,0,0Z"
            transform="translate(-90.66 32.01) rotate(-11.99)" style="fill:#e0e0e0"></path>
        <path
            d="M103.47,380.64a2,2,0,0,1,0,.57c0,.38,0,.93,0,1.65,0,1.42-.08,3.49-.34,6s-.73,5.54-1.35,8.85-1.36,6.93-2,10.76c-1.31,7.64-1.66,14.69-1.08,19.73a43.63,43.63,0,0,0,1,5.92c.34,1.38.56,2.13.52,2.15a2.57,2.57,0,0,1-.22-.54c-.11-.35-.32-.87-.5-1.56a39.08,39.08,0,0,1-1.18-5.92c-.68-5.08-.38-12.2.94-19.87.62-3.83,1.39-7.46,2-10.76s1.16-6.28,1.46-8.8.44-4.57.5-6c0-.66.05-1.2.07-1.63A2.65,2.65,0,0,1,103.47,380.64Z"
            style="fill:#e0e0e0"></path>
        <path
            d="M101.34,363.86a1.77,1.77,0,0,1,0,.53c0,.4-.1.9-.17,1.51-.18,1.38-.41,3.26-.7,5.54-.61,4.75-1.42,11.18-2.32,18.29s-2,13.58-2.91,18.22c-.46,2.31-.85,4.18-1.16,5.47-.14.59-.26,1.08-.36,1.48a1.52,1.52,0,0,1-.16.5,3.53,3.53,0,0,1,.06-.53c.07-.4.16-.89.26-1.49l1-5.5c.82-4.64,1.81-11.08,2.76-18.22s1.77-13.6,2.46-18.27c.35-2.33.64-4.22.87-5.52q.16-.9.27-1.5A1.83,1.83,0,0,1,101.34,363.86Z"
            style="fill:#e0e0e0"></path>
        <path
            d="M97.56,345.87a2.86,2.86,0,0,1,0,.61c0,.45,0,1,0,1.75,0,1.51-.13,3.71-.28,6.42-.31,5.42-.92,12.9-2,21.11s-2.36,15.61-3.44,20.93c-.54,2.66-1,4.81-1.35,6.29l-.41,1.69a2.62,2.62,0,0,1-.18.59,2.81,2.81,0,0,1,.07-.61c.09-.45.19-1,.32-1.72.29-1.55.7-3.69,1.19-6.31,1-5.33,2.22-12.72,3.28-20.92S96.5,360,96.9,354.62c.19-2.65.34-4.82.45-6.4l.13-1.75A2.27,2.27,0,0,1,97.56,345.87Z"
            style="fill:#e0e0e0"></path>
        <path
            d="M86,315.93s-.06.07-.2.19a2.64,2.64,0,0,1-.75.35,10.11,10.11,0,0,1-1.31.22,3,3,0,0,0-1.6.6l0-.13c.6,2.56,1.45,6.34,2.09,11A112.51,112.51,0,0,1,85.35,344,100.63,100.63,0,0,1,83,366c-.16.69-.31,1.35-.45,2s-.33,1.2-.47,1.74c-.29,1.09-.56,2-.81,2.78l-.58,1.73a2.39,2.39,0,0,1-.23.59,2.76,2.76,0,0,1,.13-.62c.13-.46.29-1,.48-1.76s.46-1.7.72-2.79c.14-.55.28-1.13.44-1.74s.26-1.29.41-2A108,108,0,0,0,84.83,344a120.7,120.7,0,0,0-1-15.84c-.6-4.61-1.38-8.38-1.9-11l0-.08.06-.05a3.15,3.15,0,0,1,1.75-.6c.52-.05,1-.08,1.3-.15A3.88,3.88,0,0,0,86,315.93Z"
            style="fill:#e0e0e0"></path>
        <path
            d="M60.93,274.32c.13-.05,3.31,8.15,7.1,18.31s6.76,18.44,6.62,18.49-3.31-8.15-7.1-18.31S60.79,274.37,60.93,274.32Z"
            style="fill:#e0e0e0"></path>
        <path
            d="M76.75,270.68c.14,0,.65,8.81,1.13,19.68s.76,19.71.61,19.71-.65-8.8-1.13-19.68S76.61,270.69,76.75,270.68Z"
            style="fill:#e0e0e0"></path>
        <path
            d="M441.36,42a12.67,12.67,0,0,1-.29,11.55L425.4,81.77l-4.58-3L436.5,50.52a6.19,6.19,0,0,0-2.9-8.71,4.92,4.92,0,0,0-2.37-.31,5.49,5.49,0,0,0-4.27,3l-2,3.91a2.56,2.56,0,0,1-3.63,1.12h0a3,3,0,0,1-1-3.94l2-3.91a11,11,0,0,1,7-5.72,10.19,10.19,0,0,1,8.64,1.8A11.54,11.54,0,0,1,441.36,42Z"
            style="fill:#e0e0e0"></path>
        <path
            d="M416.28,64.89l-10.48,39.6s-14.39,19.79-19.48,27.82-28.89,63.9-28.89,63.9l4.82,3.17s37.45-50.79,41.41-60.54,9.37-28,9.37-28l2.52-4.52,22-27.77-7.3.4L429,69l-7.41,3.58Z"
            style="fill:#f5f5f5"></path>
        <path
            d="M412.65,111.83l-8.11-5.33a2.09,2.09,0,0,1-.62-2.74l.47-.85a1.77,1.77,0,0,1,2.53-.67l8.12,5.33a2.11,2.11,0,0,1,.62,2.75l-.48.84A1.75,1.75,0,0,1,412.65,111.83Z"
            style="fill:#e0e0e0"></path>
        <path d="M358.21,200.71h0a3.43,3.43,0,0,1-1-4.48l.07-.12,5.14,3.38-.07.12A2.88,2.88,0,0,1,358.21,200.71Z"
            style="fill:#e0e0e0"></path>
        <path d="M355.08,206.45h0a1.22,1.22,0,0,1-.35-1.58l3.78-6.74,1.81,1.18-3.78,6.75A1,1,0,0,1,355.08,206.45Z"
            style="fill:#e0e0e0"></path>
        <path
            d="M389.92,160.68a1.82,1.82,0,0,1-.26.37c-.18.23-.45.58-.82,1a44.6,44.6,0,0,1-3.29,3.41c-2.89,2.78-7.37,6-12.06,9.88a58,58,0,0,0-10.77,11.14,36.19,36.19,0,0,0-2.47,4,12.22,12.22,0,0,1-.83,1.52,1.73,1.73,0,0,1,.14-.42c.11-.28.26-.69.51-1.19a31.2,31.2,0,0,1,2.34-4.12,54.17,54.17,0,0,1,10.74-11.33c4.72-3.87,9.22-7.06,12.15-9.75,1.48-1.33,2.62-2.47,3.39-3.28A13.81,13.81,0,0,1,389.92,160.68Z"
            style="fill:#e0e0e0"></path>
        <path
            d="M397.43,149.5a9.32,9.32,0,0,1-1.15,1.12l-3.23,2.91-10.7,9.57c-4.2,3.71-8.12,7-11,9.2-1.46,1.12-2.65,2-3.49,2.6a11.09,11.09,0,0,1-1.33.89,8.68,8.68,0,0,1,1.21-1l3.38-2.73c2.85-2.31,6.72-5.59,10.92-9.3s8-7.08,10.79-9.46c1.4-1.19,2.55-2.14,3.35-2.79A10,10,0,0,1,397.43,149.5Z"
            style="fill:#e0e0e0"></path>
        <path
            d="M404.65,136.69a2.13,2.13,0,0,1-.29.38l-.9,1c-.79.88-2,2.13-3.44,3.65-2.95,3-7.13,7.14-12,11.43s-9.38,8-12.75,10.55c-1.68,1.28-3.06,2.3-4,3l-1.12.77a1.55,1.55,0,0,1-.42.25s.11-.13.35-.33l1.06-.86c1-.78,2.32-1.83,3.93-3.11,3.3-2.64,7.81-6.36,12.63-10.65s9-8.33,12-11.3l3.55-3.53,1-.95C404.51,136.78,404.64,136.67,404.65,136.69Z"
            style="fill:#e0e0e0"></path>
        <path
            d="M413.79,112.41a.63.63,0,0,1-.22,0,1.72,1.72,0,0,1-.6-.21,7,7,0,0,1-.83-.59,2.19,2.19,0,0,0-1.18-.54l.12-.06a90.55,90.55,0,0,1-12,17.62,77.52,77.52,0,0,1-12.73,11.83c-.9.66-1.72,1.24-2.47,1.71s-1.37.91-1.91,1.22l-1.25.71c-.28.16-.44.24-.45.22a2.85,2.85,0,0,1,.4-.31l1.19-.79c.52-.34,1.14-.78,1.86-1.29s1.53-1.09,2.41-1.77a84.49,84.49,0,0,0,12.56-11.87,104.9,104.9,0,0,0,12.16-17.4l0-.08H411a2.28,2.28,0,0,1,1.29.64c.31.26.56.48.78.63A2.76,2.76,0,0,0,413.79,112.41Z"
            style="fill:#e0e0e0"></path>
        <path
            d="M421.54,73.62c.13,0-2.33,6.71-5.5,14.88s-5.86,14.74-6,14.69,2.33-6.71,5.5-14.88S421.4,73.56,421.54,73.62Z"
            style="fill:#e0e0e0"></path>
        <path d="M432.1,80.32c.12.09-4.14,5.62-9.5,12.36s-9.79,12.13-9.91,12,4.14-5.62,9.5-12.36S432,80.23,432.1,80.32Z"
            style="fill:#e0e0e0"></path>
    </g>
    <g id="freepik--Floor--inject-251">
        <path
            d="M450.43,478c0,.14-93.33.26-208.42.26S33.57,478.15,33.57,478s93.31-.26,208.44-.26S450.43,477.87,450.43,478Z"
            style="fill:#263238"></path>
    </g>
    <g id="freepik--speech-bubble--inject-251">
        <path d="M277.8,188.3l10.07-7a32.86,32.86,0,1,1,.39,11.75v0Z" style="fill:#fff"></path>
        <path
            d="M277.8,188.3l10.43,4.89a.09.09,0,0,0,.1,0s0,0,0,0v0h-.16a33.26,33.26,0,0,0,2.36,7,32.28,32.28,0,0,0,4.95,7.64,33.94,33.94,0,0,0,3.67,3.61l2.16,1.64a9.22,9.22,0,0,0,1.15.77l1.2.74a33,33,0,0,0,37.1-2.58,33.67,33.67,0,0,0,9.3-11.8,27.89,27.89,0,0,0,1.45-3.62,13.55,13.55,0,0,0,.56-1.88c.16-.64.33-1.28.48-1.92a34.22,34.22,0,0,0,.59-8,30.72,30.72,0,0,0-.39-3.95,15.73,15.73,0,0,0-.4-1.93c-.15-.64-.28-1.28-.46-1.91a34.08,34.08,0,0,0-3-7.12A33.53,33.53,0,0,0,338.8,159a33,33,0,0,0-36.92,0c-.75.56-1.54,1.06-2.24,1.64l-2,1.79c-.64.61-1.2,1.27-1.79,1.89a19.28,19.28,0,0,0-1.63,1.92,32.93,32.93,0,0,0-4.48,7.93,32.51,32.51,0,0,0-1.91,7.22l0-.05-10,7,10.12-6.89a.05.05,0,0,0,0,0,32.52,32.52,0,0,1,6.43-15,19.17,19.17,0,0,1,1.62-1.9c.59-.62,1.15-1.28,1.79-1.88l2-1.76c.69-.58,1.47-1.07,2.23-1.63a32.5,32.5,0,0,1,46.51,10.89,33.11,33.11,0,0,1,3,7c.18.62.31,1.25.46,1.89a15.39,15.39,0,0,1,.39,1.91,31.76,31.76,0,0,1,.39,3.91,34,34,0,0,1-.59,7.88c-.14.63-.32,1.26-.47,1.89a14.88,14.88,0,0,1-.55,1.87,28.76,28.76,0,0,1-1.44,3.58,33.16,33.16,0,0,1-9.19,11.68,32.69,32.69,0,0,1-36.75,2.62l-1.2-.73a9.1,9.1,0,0,1-1.14-.77l-2.15-1.62a32.7,32.7,0,0,1-8.6-11.13,32.5,32.5,0,0,1-2.38-7,.08.08,0,0,0-.1-.06.09.09,0,0,0-.06.07v0l.11-.07Z"
            style="fill:#263238"></path>
        <path
            d="M334.35,184.26a8.77,8.77,0,0,0-2.41-4.69,8.4,8.4,0,0,0-4.49-2.56,6.93,6.93,0,0,0-5.29,1.23,6.76,6.76,0,0,0-2.09,2.53,7,7,0,0,0-2.1-2.13,6.92,6.92,0,0,0-5.36-.86,8.41,8.41,0,0,0-4.31,2.86,8.78,8.78,0,0,0-2.09,4.84,10.64,10.64,0,0,0,1.55,6.53,15.09,15.09,0,0,0,5.38,4.71c3.47,1.93,8,4.35,8,4.35s3.69-3,7-5.13a15.09,15.09,0,0,0,5.05-5.06A10.67,10.67,0,0,0,334.35,184.26Z"
            style="fill:#90CAF9"></path>
    </g>
    <g id="freepik--Plant--inject-251">
        <path d="M369.18,406.08c-.07.09-.69-.29-1.39-.84s-1.2-1.09-1.12-1.18.7.28,1.39.84S369.26,406,369.18,406.08Z"
            style="fill:#263238"></path>
        <path
            d="M388.14,377.74a21.89,21.89,0,0,0-.65-7.87c-.83-2.52-2.77-4.83-5.37-5.37-3-.61-6,1.26-7.65,3.79s-2.23,5.59-2.72,8.58A302.8,302.8,0,0,0,368,439.16l12.11,1.7C385.47,419.11,387.17,400.11,388.14,377.74Z"
            style="fill:#455a64"></path>
        <path
            d="M380.44,364.41s0,.07-.05.19-.12.33-.2.55l-.81,2.09c-.17.46-.39.95-.57,1.52s-.38,1.18-.59,1.83l-.68,2.11-.63,2.4a106.67,106.67,0,0,0-2.34,12c-.65,4.55-1.08,9.6-1.42,14.9-.62,10.62-.72,20.26-1,27.23-.13,3.48-.25,6.3-.38,8.25-.07.94-.12,1.69-.16,2.24,0,.23,0,.42-.05.58a.55.55,0,0,1,0,.2.63.63,0,0,1,0-.2c0-.16,0-.35,0-.59,0-.55,0-1.3.07-2.24.08-2,.15-4.77.24-8.25.2-7,.25-16.61.87-27.24.34-5.31.78-10.37,1.46-14.94a99.06,99.06,0,0,1,2.44-12c.23-.84.45-1.65.65-2.41s.49-1.44.72-2.1.43-1.27.62-1.83.43-1.05.61-1.51l.89-2.06c.09-.22.17-.39.24-.54A1.32,1.32,0,0,1,380.44,364.41Z"
            style="fill:#263238"></path>
        <path
            d="M381.57,364.42a8.71,8.71,0,0,1,1.48,2.5,18.54,18.54,0,0,1,1.1,7.84c-.32,6.7-.92,15.92-1.72,26.11s-1.69,19.4-2.4,26.06c-.36,3.33-.67,6-.9,7.88-.11.89-.2,1.61-.27,2.13,0,.23-.06.41-.08.56a.91.91,0,0,1,0,.19,1.07,1.07,0,0,1,0-.2c0-.15,0-.33,0-.56.05-.52.11-1.24.19-2.14.19-1.91.45-4.59.76-7.89.64-6.67,1.48-15.88,2.28-26.06s1.44-19.41,1.84-26.09a18.88,18.88,0,0,0-.95-7.76A17.39,17.39,0,0,0,381.57,364.42Z"
            style="fill:#263238"></path>
        <path
            d="M390,395.78a6.84,6.84,0,0,1-2.3-.6,6.67,6.67,0,0,1-2.15-1,6.84,6.84,0,0,1,2.3.6A6.56,6.56,0,0,1,390,395.78Z"
            style="fill:#263238"></path>
        <path
            d="M391.43,383.43a7.48,7.48,0,0,1-2.19,1.21,7.33,7.33,0,0,1-2.36.82,7.34,7.34,0,0,1,2.18-1.21A7.42,7.42,0,0,1,391.43,383.43Z"
            style="fill:#263238"></path>
        <path
            d="M390.67,373.35a3.91,3.91,0,0,1-1.81.09,3.87,3.87,0,0,1-1.77-.34,3.84,3.84,0,0,1,1.8-.09A3.94,3.94,0,0,1,390.67,373.35Z"
            style="fill:#263238"></path>
        <path
            d="M378.16,366.89c-.1.06-.63-.6-1.18-1.48a4.39,4.39,0,0,1-.82-1.7c.1-.07.63.59,1.19,1.47S378.27,366.83,378.16,366.89Z"
            style="fill:#263238"></path>
        <path d="M374,373c0,.12-.77.2-1.72.18a3.59,3.59,0,0,1-1.71-.25c0-.12.77-.2,1.72-.18S374,372.86,374,373Z"
            style="fill:#263238"></path>
        <path
            d="M371.07,385.18a4.14,4.14,0,0,1-1.81-.5c-1-.38-1.7-.78-1.65-.9a4.38,4.38,0,0,1,1.81.5C370.37,384.67,371.11,385.07,371.07,385.18Z"
            style="fill:#263238"></path>
        <path d="M370.75,395.43c0,.12-.67.37-1.54.55s-1.61.24-1.63.12.66-.36,1.54-.54A3.3,3.3,0,0,1,370.75,395.43Z"
            style="fill:#263238"></path>
        <path d="M369.35,412.21c0,.12-.71.35-1.63.51s-1.7.21-1.72.09.71-.35,1.64-.51S369.33,412.09,369.35,412.21Z"
            style="fill:#263238"></path>
        <path d="M368.43,421.47c.05.11-.56.54-1.37,1s-1.51.69-1.57.58.56-.54,1.37-1S368.37,421.36,368.43,421.47Z"
            style="fill:#263238"></path>
        <path
            d="M376,432c-.11.06-.64-.67-1.19-1.64a4.92,4.92,0,0,1-.82-1.86c.11-.06.64.68,1.19,1.64A4.92,4.92,0,0,1,376,432Z"
            style="fill:#263238"></path>
        <path
            d="M378.17,414.51c.08.09-.51.81-1.33,1.61s-1.54,1.38-1.62,1.29.51-.8,1.32-1.6S378.09,414.43,378.17,414.51Z"
            style="fill:#263238"></path>
        <path d="M377.69,405.35c-.09.08-.64-.37-1.23-1s-1-1.22-.91-1.3.63.37,1.23,1S377.77,405.27,377.69,405.35Z"
            style="fill:#263238"></path>
        <path d="M379.19,393.64c.09.08-.41.78-1.11,1.56s-1.34,1.35-1.42,1.27.4-.78,1.1-1.56S379.1,393.56,379.19,393.64Z"
            style="fill:#263238"></path>
        <path d="M380,385.14c-.08.09-.77-.45-1.54-1.21s-1.32-1.43-1.24-1.52.78.46,1.54,1.21S380.11,385.06,380,385.14Z"
            style="fill:#263238"></path>
        <path
            d="M381.69,373.65a4.15,4.15,0,0,1-.77,1.72c-.53.89-1.05,1.56-1.15,1.5a4.26,4.26,0,0,1,.77-1.72C381.07,374.26,381.59,373.59,381.69,373.65Z"
            style="fill:#263238"></path>
        <path
            d="M384.81,363c.11.06-.2.83-.68,1.72s-1,1.57-1.07,1.52a4.15,4.15,0,0,1,.69-1.73C384.23,363.63,384.71,363,384.81,363Z"
            style="fill:#263238"></path>
        <path d="M388.35,367.84c0,.11-.43.45-1.08.76s-1.22.48-1.27.37.43-.45,1.08-.76S388.3,367.74,388.35,367.84Z"
            style="fill:#263238"></path>
        <path
            d="M388.44,406.08a4.9,4.9,0,0,1-2.37-.58,5.06,5.06,0,0,1-2.06-1.31,11.35,11.35,0,0,1,2.23.91A12,12,0,0,1,388.44,406.08Z"
            style="fill:#263238"></path>
        <path d="M387,414.17c0,.12-.71.36-1.63.54s-1.69.23-1.71.11.7-.36,1.63-.54A3.76,3.76,0,0,1,387,414.17Z"
            style="fill:#263238"></path>
        <path d="M385.21,428.06a6.9,6.9,0,0,1-3-3.79,15.18,15.18,0,0,1,1.49,1.9A14.08,14.08,0,0,1,385.21,428.06Z"
            style="fill:#263238"></path>
        <path d="M365.73,434.41c-.07-.09.42-.64,1.1-1.23s1.31-1,1.38-.89-.41.64-1.1,1.22S365.81,434.5,365.73,434.41Z"
            style="fill:#263238"></path>
        <path
            d="M360.13,404.1c-.78-2.46-2.26-5.33-4.85-5.37a4.32,4.32,0,0,0-3.64,2.44,9,9,0,0,0-1,4.45,116.12,116.12,0,0,0,5.56,32.28h9.46A112.29,112.29,0,0,0,360.13,404.1Z"
            style="fill:#455a64"></path>
        <path
            d="M343,388.6a10.51,10.51,0,0,0-9.85-8.41c-4.18.73-5.8,4.85-6.3,9.07s.82,8.41,2.11,12.45l12.45,39,11.77-1.29C349.48,422,347.34,405.86,343,388.6Z"
            style="fill:#455a64"></path>
        <path
            d="M355.28,398.73a10.63,10.63,0,0,0-.8,1.34,8.79,8.79,0,0,0-.44,4.19c.18,1.79.38,4,.69,6.33s.73,5,1.26,7.7c1.07,5.44,2.28,10.31,3,13.87.39,1.77.68,3.22.87,4.22.08.46.14.84.2,1.15a1.81,1.81,0,0,1,0,.41,1.26,1.26,0,0,1-.13-.39c-.07-.31-.17-.68-.28-1.14-.25-1.05-.58-2.47-1-4.18-.85-3.54-2.1-8.4-3.17-13.86-.53-2.72-.95-5.34-1.24-7.73-.15-1.19-.25-2.33-.35-3.4s-.2-2.05-.25-3a8.64,8.64,0,0,1,.59-4.28A3.82,3.82,0,0,1,355.28,398.73Z"
            style="fill:#263238"></path>
        <path
            d="M333.34,379.86a15.16,15.16,0,0,0-1.42,1.91,13.55,13.55,0,0,0-1.79,6.16,28.39,28.39,0,0,0,1.46,9.47c1,3.5,2.16,7.35,3.36,11.38,2.34,8.07,4.47,15.37,6,20.71.74,2.62,1.35,4.76,1.78,6.29l.46,1.72a2.74,2.74,0,0,1,.13.6,2.9,2.9,0,0,1-.21-.58c-.14-.43-.32-1-.54-1.69-.47-1.52-1.12-3.65-1.91-6.25-1.59-5.33-3.76-12.62-6.15-20.67-1.18-4-2.3-7.89-3.33-11.4a27.92,27.92,0,0,1-1.37-9.6,13.12,13.12,0,0,1,1.95-6.23A7.14,7.14,0,0,1,333.34,379.86Z"
            style="fill:#263238"></path>
        <path
            d="M350.64,438.12a2.25,2.25,0,0,1-.27-.56c-.15-.38-.4-.93-.67-1.66-.56-1.44-1.28-3.57-2-6.25s-1.49-5.89-2.2-9.49-1.43-7.56-2.21-11.71-1.73-8.06-2.79-11.56a65.23,65.23,0,0,0-3.43-9.07,49,49,0,0,0-3.18-5.72c-.4-.66-.77-1.13-1-1.48a2.91,2.91,0,0,1-.33-.53,3.69,3.69,0,0,1,.4.48c.24.33.64.79,1.06,1.44a43,43,0,0,1,3.31,5.68,60.74,60.74,0,0,1,3.54,9.08,117.48,117.48,0,0,1,2.83,11.6c.77,4.15,1.51,8.11,2.18,11.72s1.39,6.81,2.1,9.48,1.38,4.82,1.89,6.28c.24.73.46,1.29.59,1.68A3.69,3.69,0,0,1,350.64,438.12Z"
            style="fill:#263238"></path>
        <path d="M329.19,399.77c0,.12-.61.37-1.43.57s-1.5.27-1.53.15.61-.37,1.43-.57S329.16,399.66,329.19,399.77Z"
            style="fill:#263238"></path>
        <path
            d="M327.94,391.74a5.73,5.73,0,0,1-2,.21,5.89,5.89,0,0,1-2-.06,4.19,4.19,0,0,1,2-.37A4.07,4.07,0,0,1,327.94,391.74Z"
            style="fill:#263238"></path>
        <path d="M329.27,384.4c-.08.09-.72-.32-1.43-.93s-1.22-1.16-1.15-1.25.72.32,1.43.92S329.35,384.31,329.27,384.4Z"
            style="fill:#263238"></path>
        <path d="M332.86,377.61c.12,0,.09.6.07,1.29s0,1.27-.15,1.29-.31-.56-.29-1.3S332.75,377.58,332.86,377.61Z"
            style="fill:#263238"></path>
        <path d="M340.2,380.81c.09.07-.19.65-.65,1.29s-.9,1.12-1,1,.19-.65.64-1.29S340.1,380.74,340.2,380.81Z"
            style="fill:#263238"></path>
        <path d="M345,389.08c0,.11-.57.47-1.36.79s-1.48.5-1.53.39.57-.47,1.36-.79S344.91,389,345,389.08Z"
            style="fill:#263238"></path>
        <path
            d="M347.85,397.59a3.56,3.56,0,0,1-1.87.82,3.63,3.63,0,0,1-2,.07,7.35,7.35,0,0,1,1.93-.5A8.39,8.39,0,0,1,347.85,397.59Z"
            style="fill:#263238"></path>
        <path d="M334.58,395.17c-.11,0,0-.62.19-1.31s.48-1.22.6-1.18,0,.62-.19,1.31S334.7,395.21,334.58,395.17Z"
            style="fill:#263238"></path>
        <path
            d="M336.43,405.86a4,4,0,0,1,.54-1.77c.4-.93.82-1.64.93-1.6a4,4,0,0,1-.54,1.77C337,405.19,336.54,405.91,336.43,405.86Z"
            style="fill:#263238"></path>
        <path
            d="M331.86,408.78c0,.12-.79-.09-1.69-.37s-1.63-.54-1.61-.66a3.28,3.28,0,0,1,1.74.25C331.22,408.29,331.91,408.68,331.86,408.78Z"
            style="fill:#263238"></path>
        <path d="M334.5,417.5c.07.09-.44.57-1.13,1.07s-1.31.81-1.38.71.44-.57,1.13-1.07S334.43,417.4,334.5,417.5Z"
            style="fill:#263238"></path>
        <path d="M336.61,426.18c0,.12-.59.37-1.39.56s-1.47.26-1.5.14.6-.36,1.4-.56S336.58,426.07,336.61,426.18Z"
            style="fill:#263238"></path>
        <path d="M348.08,404.85c.06.1-.47.52-1.25.81s-1.46.33-1.48.22.59-.34,1.33-.62S348,404.74,348.08,404.85Z"
            style="fill:#263238"></path>
        <path d="M349.72,418.36c-.05.11-.69-.08-1.42-.43s-1.29-.71-1.24-.82.69.09,1.42.43S349.77,418.25,349.72,418.36Z"
            style="fill:#263238"></path>
        <path d="M352.61,428a8.63,8.63,0,0,1-3.59-1.41,4.56,4.56,0,0,1,1.87.51A4.49,4.49,0,0,1,352.61,428Z"
            style="fill:#263238"></path>
        <path d="M337.07,435.61c-.05-.11.72-.63,1.61-1.34s1.58-1.32,1.67-1.24-.47.86-1.4,1.58A4,4,0,0,1,337.07,435.61Z"
            style="fill:#263238"></path>
        <path d="M344.72,430.69c-.12,0-.29-.64-.58-1.39s-.61-1.35-.51-1.42.6.45.91,1.26S344.84,430.68,344.72,430.69Z"
            style="fill:#263238"></path>
        <path d="M342.69,419.06c-.07.1-.56-.14-1.1-.53s-.92-.78-.85-.87.56.13,1.1.52S342.76,419,342.69,419.06Z"
            style="fill:#263238"></path>
        <path d="M360.52,400.83c.07.1-.41.58-1.08,1.07s-1.26.81-1.33.71.41-.57,1.07-1.06S360.44,400.74,360.52,400.83Z"
            style="fill:#263238"></path>
        <path
            d="M363.2,408.18a2.65,2.65,0,0,1-1.67.17c-.93-.1-1.64-.41-1.6-.53a5.18,5.18,0,0,1,1.64.1C362.46,408,363.19,408.06,363.2,408.18Z"
            style="fill:#263238"></path>
        <path
            d="M351.66,409.82c0,.12-.67.37-1.58.43a2.64,2.64,0,0,1-1.61-.21c0-.12.72-.17,1.59-.22S351.63,409.7,351.66,409.82Z"
            style="fill:#263238"></path>
        <path d="M352.65,402.88c0,.12-.72.14-1.49-.22s-1.21-.9-1.13-1,.61.27,1.31.59S352.66,402.76,352.65,402.88Z"
            style="fill:#263238"></path>
        <path d="M364.19,416.06c-.06.1-.78-.24-1.61-.76s-1.44-1-1.38-1.12.79.24,1.61.76S364.26,416,364.19,416.06Z"
            style="fill:#263238"></path>
        <rect x="330.77" y="436.67" width="61.6" height="10.92" style="fill:#90CAF9"></rect>
        <polygon points="335.37 445.42 342.86 478.04 379.57 478.04 387.76 445.42 335.37 445.42" style="fill:#90CAF9">
        </polygon>
        <path d="M392.33,447.6c0,.12-13.89.21-31,.21s-31-.09-31-.21,13.89-.22,31-.22S392.33,447.48,392.33,447.6Z"
            style="fill:#263238"></path>
        <path d="M358.07,410.06c-.1.07-.52-.42-.94-1.09s-.67-1.26-.57-1.33.52.43.94,1.1S358.18,410,358.07,410.06Z"
            style="fill:#263238"></path>
        <path d="M358.1,418.85c-.12,0,0-.78.32-1.66s.62-1.56.73-1.52,0,.78-.32,1.66S358.21,418.88,358.1,418.85Z"
            style="fill:#263238"></path>
        <path
            d="M361.1,428.07a4.72,4.72,0,0,1-1-1.65,4.47,4.47,0,0,1-.64-1.83c.11,0,.57.68,1,1.64A4.42,4.42,0,0,1,361.1,428.07Z"
            style="fill:#263238"></path>
        <path d="M354.6,435.49c-.09-.08.27-.65.82-1.28s1.06-1.07,1.15-1-.28.65-.82,1.28S354.69,435.57,354.6,435.49Z"
            style="fill:#263238"></path>
        <path d="M353.23,422c0,.11-.61.11-1.32,0s-1.27-.32-1.25-.44.61-.11,1.32,0S353.25,421.9,353.23,422Z"
            style="fill:#263238"></path>
    </g>
    <g id="freepik--Character--inject-251">
        <path d="M241.8,50.85l-6.8.53-.12-14.64a1.53,1.53,0,0,1,1.42-1.55l2.06-.16A1.54,1.54,0,0,1,240,36.38Z"
            style="fill:#90CAF9"></path>
        <path
            d="M238.12,48.42s-49.78,3.39-68.2,14.47c0,0-25.9,7.16-52.16,28.42A352.93,352.93,0,0,0,73,134.93s35.07-11.48,65.51,7.87c0,0,62.49-11.53,104.42,3.63,0,0,90.87-10.75,108.49-2.42,0,0,20.39-15.54,59.77-9.67,0,0-26.45-30.18-52.78-49.1S324,67.69,324,67.69,302.27,49.47,238.12,48.42Z"
            style="fill:#90CAF9"></path>
        <g style="opacity:0.30000000000000004">
            <path
                d="M411.05,134.34c-39.38-5.88-59.77,9.66-59.77,9.66-17.63-8.32-108.49,2.42-108.49,2.42-41.93-15.15-104.43-3.62-104.43-3.62-30.43-19.36-65.51-7.87-65.51-7.87h0S91.11,119.15,110.08,121c0,0,46.57-24.52,134.58-5.61,0,0,82.69-18.68,134.3,5.74,0,0,12.28,1.09,32.09,13.19">
            </path>
        </g>
        <path
            d="M411,134.34l-.52-.28-1.52-.87c-1.33-.79-3.33-1.91-6-3.28a109.34,109.34,0,0,0-9.95-4.56c-2-.81-4.17-1.59-6.52-2.3a46.12,46.12,0,0,0-7.61-1.74h-.06a120.08,120.08,0,0,0-25-8.24c-4.81-1-9.9-2-15.25-2.58-2.67-.37-5.41-.58-8.2-.86s-5.64-.43-8.54-.53a289.31,289.31,0,0,0-37,.83,331.73,331.73,0,0,0-40.19,5.75h-.11l-3-.57c-6.63-1.24-13.15-2.64-19.65-3.43-3.25-.43-6.45-1-9.65-1.31l-9.51-.89a255.66,255.66,0,0,0-36-.53c-22.66,1.33-42.42,5.67-56.64,12.23l-.05,0h0a41.63,41.63,0,0,0-16.82,2.3,65.49,65.49,0,0,0-11.55,5.39A76.17,76.17,0,0,0,75,133.26c-.73.54-1.27,1-1.64,1.25l-.55.42.52-.46c.36-.3.89-.73,1.61-1.28a68.64,68.64,0,0,1,6.62-4.46,63.77,63.77,0,0,1,11.55-5.48,41.55,41.55,0,0,1,17-2.39l-.1,0c14.29-6.65,34.06-11,56.78-12.4a253.28,253.28,0,0,1,36.07.48l9.53.89c3.2.33,6.41.88,9.66,1.31,6.52.78,13,2.19,19.69,3.43l3,.57h-.12a329.8,329.8,0,0,1,40.27-5.74,286.34,286.34,0,0,1,37.07-.79c2.9.11,5.76.35,8.56.54s5.54.51,8.21.89c5.37.64,10.47,1.57,15.29,2.61A120.6,120.6,0,0,1,379,121h0a48.07,48.07,0,0,1,7.66,1.78c2.36.73,4.54,1.53,6.53,2.34a107.26,107.26,0,0,1,9.94,4.64c2.63,1.4,4.62,2.54,5.94,3.35l1.49.91Z"
            style="fill:#263238"></path>
        <path
            d="M173.82,60.24a6,6,0,0,1-.69.58l-2,1.6c-1.76,1.37-4.29,3.37-7.39,5.88-6.19,5-14.6,12.14-23.47,20.46S123.75,105,118.35,110.89c-2.7,2.93-4.86,5.32-6.33,7l-1.72,1.91a4.56,4.56,0,0,1-.63.64,8.22,8.22,0,0,1,.55-.71l1.64-2c1.43-1.71,3.55-4.15,6.22-7.11,5.33-5.94,13-13.92,21.83-22.26S157.24,73,163.5,68c3.13-2.47,5.7-4.43,7.5-5.75l2.07-1.52A5.79,5.79,0,0,1,173.82,60.24Z"
            style="fill:#263238"></path>
        <path
            d="M238.12,48.42a2.94,2.94,0,0,1,.22.64c.13.48.31,1.1.53,1.88s.5,1.81.75,3,.6,2.5.87,4c.6,3,1.15,6.54,1.64,10.51s.83,8.37,1.08,13c.47,9.23.53,17.59.65,23.64,0,3,.1,5.4.13,7.16l0,1.94a2.94,2.94,0,0,1,0,.68,3.1,3.1,0,0,1-.07-.67c0-.5-.07-1.14-.12-2-.1-1.69-.2-4.13-.3-7.16-.21-6-.33-14.4-.8-23.61-.25-4.61-.61-9-1-13s-1-7.53-1.53-10.5c-.24-1.49-.55-2.82-.78-4s-.47-2.18-.67-3l-.43-1.9A2.87,2.87,0,0,1,238.12,48.42Z"
            style="fill:#263238"></path>
        <path
            d="M379,121.15a5.56,5.56,0,0,1-.5-.62l-1.35-1.82c-1.15-1.61-2.88-3.88-5.08-6.63s-4.91-6-8.07-9.4-6.75-7.08-10.68-10.76c-7.87-7.34-15.49-13.44-21-17.8L325.64,69l-1.79-1.4a4,4,0,0,1-.6-.52,4,4,0,0,1,.66.43l1.85,1.32c1.6,1.16,3.9,2.86,6.71,5,5.61,4.28,13.27,10.35,21.17,17.71,3.93,3.69,7.53,7.37,10.68,10.82s5.83,6.7,8,9.49,3.85,5.1,4.95,6.74l1.28,1.88A3.65,3.65,0,0,1,379,121.15Z"
            style="fill:#263238"></path>
        <path
            d="M351.39,144a9.46,9.46,0,0,1-.81-1.34c-.54-1-1.23-2.22-2.07-3.73-1.74-3.14-4.14-7.49-6.89-12.24s-5.31-9-7.18-12.07L332.22,111a9.16,9.16,0,0,1-.76-1.37,9,9,0,0,1,.93,1.26c.57.82,1.38,2,2.36,3.55,2,3,4.58,7.24,7.33,12s5.1,9.14,6.75,12.33c.83,1.6,1.49,2.9,1.93,3.81A8.37,8.37,0,0,1,351.39,144Z"
            style="fill:#263238"></path>
        <path
            d="M241.39,115.15c.14,0,.48,7.13.76,15.93s.4,15.94.25,15.95-.49-7.13-.77-15.93S241.24,115.16,241.39,115.15Z"
            style="fill:#263238"></path>
        <path
            d="M149.84,110.61c.13,0-2.48,7.29-5.85,16.15s-6.2,16-6.34,16,2.49-7.28,5.85-16.15S149.7,110.56,149.84,110.61Z"
            style="fill:#263238"></path>
        <path
            d="M251.94,48.93c0,.08-1.47,0-3.83-.12s-5.61-.17-9.2-.06-6.85.35-9.2.54a31.88,31.88,0,0,1-3.81.26,4.22,4.22,0,0,1,1-.22c.65-.12,1.6-.26,2.77-.4,2.35-.29,5.61-.6,9.22-.7a83.56,83.56,0,0,1,9.25.21c1.18.09,2.13.2,2.78.29A4.79,4.79,0,0,1,251.94,48.93Z"
            style="fill:#263238"></path>
        <path
            d="M128.59,83a4.88,4.88,0,0,1,2-.27,12.27,12.27,0,0,1,4.76,1,12.48,12.48,0,0,1,4,2.72A5,5,0,0,1,140.55,88a18.21,18.21,0,0,1-1.45-1.35,14.64,14.64,0,0,0-4-2.51,14.36,14.36,0,0,0-4.57-1.08A17.21,17.21,0,0,1,128.59,83Z"
            style="fill:#fff"></path>
        <path
            d="M242.69,86.57a1.42,1.42,0,0,1-.26-.1l-.73-.34-2.78-1.35-2-1c-.74-.34-1.57-.66-2.44-1-1.77-.7-3.74-1.62-6-2.33l-3.55-1.21c-1.24-.42-2.57-.72-3.93-1.1-2.7-.81-5.66-1.35-8.76-2a117,117,0,0,0-20.49-1.68,116.81,116.81,0,0,0-20.43,2.29c-3.08.73-6,1.35-8.7,2.24-1.34.43-2.66.77-3.89,1.22l-3.52,1.31c-2.27.78-4.21,1.76-6,2.51-.87.4-1.69.74-2.42,1.1l-2,1L142.1,87.6l-.71.36a1,1,0,0,1-.26.11,1,1,0,0,1,.23-.15l.69-.41,2.7-1.52,1.95-1.08c.73-.38,1.54-.73,2.4-1.14,1.74-.79,3.68-1.79,6-2.59l3.52-1.35c1.23-.46,2.55-.82,3.89-1.25,2.68-.92,5.64-1.56,8.73-2.3a104.84,104.84,0,0,1,41.11-.61c3.11.65,6.08,1.21,8.79,2,1.35.4,2.68.71,3.93,1.13l3.56,1.25c2.29.74,4.25,1.68,6,2.42.88.38,1.7.71,2.44,1.06l2,1L241.75,86l.71.38A1,1,0,0,1,242.69,86.57Z"
            style="fill:#fff"></path>
        <path
            d="M357,95.05l-.28-.15-.79-.47c-.7-.42-1.7-1.07-3-1.85-2.63-1.59-6.48-3.83-11.37-6.32a138.85,138.85,0,0,0-17.73-7.57,110.59,110.59,0,0,0-22.94-5.32,90.41,90.41,0,0,0-23.53.37,85.36,85.36,0,0,0-10.06,2.15c-1.54.47-3,.91-4.45,1.41s-2.77,1-4,1.54a69.25,69.25,0,0,0-11.48,6c-1.32.8-2.24,1.56-2.92,2l-.76.52a1.63,1.63,0,0,1-.27.17s.07-.08.24-.21l.73-.56c.65-.47,1.56-1.26,2.86-2.09a66.27,66.27,0,0,1,11.46-6.2c1.25-.59,2.63-1,4-1.58s2.91-1,4.46-1.44a82.14,82.14,0,0,1,10.11-2.21A89.58,89.58,0,0,1,301,72.85a109.47,109.47,0,0,1,23,5.39,134.23,134.23,0,0,1,17.73,7.69c4.89,2.54,8.71,4.83,11.31,6.48,1.31.8,2.3,1.49,3,1.93l.76.51A1.31,1.31,0,0,1,357,95.05Z"
            style="fill:#fff"></path>
        <path
            d="M367.79,92.45c0,.18-2.49-.11-5.4.56a17.64,17.64,0,0,0-4.89,2.25c0-.05.36-.53,1.18-1.13a10.19,10.19,0,0,1,3.59-1.63,13.6,13.6,0,0,1,3.92-.32A4.16,4.16,0,0,1,367.79,92.45Z"
            style="fill:#fff"></path>
        <path
            d="M244.28,335.7,204,345.26l2.67,80.32s-1.95,37.93-2.57,52.05l50.64.32,2.32-53.27,1.47-32.7a70,70,0,0,0-9.94-39.22l-6.25-10.39L242,337"
            style="fill:#263238"></path>
        <path
            d="M199.21,478l5.09-57.57,7-75.62-44.86-12.5-1.74,9.32s-17,40.35-16.58,52.26c1.11,33.37-.61,83.79-.61,83.79"
            style="fill:#263238"></path>
        <path
            d="M184.54,356.93a4.12,4.12,0,0,1-.38,1.07,17.55,17.55,0,0,1-1.47,2.73,21.46,21.46,0,0,1-17.2,9.8,18.29,18.29,0,0,1-3.1-.12,4,4,0,0,1-1.11-.22c0-.1,1.61.16,4.19,0a23.09,23.09,0,0,0,9.56-2.89,22.84,22.84,0,0,0,7.35-6.76C183.86,358.4,184.45,356.89,184.54,356.93Z"
            style="fill:#455a64"></path>
        <path
            d="M250.33,369.61a3.62,3.62,0,0,1-1-.19,24.71,24.71,0,0,1-2.76-.82A36.77,36.77,0,0,1,231,358a23.77,23.77,0,0,1-1.78-2.27,3.59,3.59,0,0,1-.55-.89c.07-.06,1,1.15,2.6,2.91a41.52,41.52,0,0,0,15.4,10.5C248.9,369.13,250.35,369.53,250.33,369.61Z"
            style="fill:#455a64"></path>
        <path
            d="M211.08,396.69a13.44,13.44,0,0,1,1.71-.15c.55,0,1.22-.1,2-.21a8.33,8.33,0,0,0,1.21-.24,2.07,2.07,0,0,0,.6-.23.39.39,0,0,0,.19-.16.89.89,0,0,0,0-.27c-.2-3.95-.45-9.42-.68-15.45s-.41-11.49-.52-15.45c0-1.91-.07-3.49-.1-4.68a10,10,0,0,1,0-1.72,12.1,12.1,0,0,1,.16,1.71c.07,1.19.16,2.77.27,4.68.2,4,.44,9.41.67,15.45s.42,11.5.52,15.45v.18a.55.55,0,0,1-.06.27.79.79,0,0,1-.34.3,2.7,2.7,0,0,1-.69.24,8.71,8.71,0,0,1-1.26.21c-.79.08-1.46.11-2,.12h-1.28A1.53,1.53,0,0,1,211.08,396.69Z"
            style="fill:#455a64"></path>
        <path
            d="M209.79,360.41a1.9,1.9,0,0,1,.93.26,4.12,4.12,0,0,1,1.81,1.9,4.22,4.22,0,0,1,.41,1.8,3.77,3.77,0,0,1-.66,2,4.06,4.06,0,0,1-7.47-1.7,3.65,3.65,0,0,1,.28-2.12,4.16,4.16,0,0,1,1.15-1.45,4.08,4.08,0,0,1,2.45-.92,1.85,1.85,0,0,1,.95.15c0,.05-.34,0-.93.05a4.09,4.09,0,0,0-2.23,1,3.44,3.44,0,0,0-1.2,3.21,3.6,3.6,0,0,0,6.6,1.5,3.42,3.42,0,0,0,.31-3.41,4.16,4.16,0,0,0-1.57-1.87C210.11,360.54,209.78,360.45,209.79,360.41Z"
            style="fill:#455a64"></path>
        <path
            d="M225.32,218.43s8.05-1.38,16.62,6,54.32,48.13,54.32,48.13,7.11,20.74-6.12,30.55c-8.69,6.45-41.17-8.87-41.17-8.87Z"
            style="fill:#90CAF9"></path>
        <path
            d="M283.61,240.41a2.35,2.35,0,0,1,3.45,1.14c2.66,6.84,9.54,25,10.22,31.17,2.43,21.91-8.33,14.19-16.51,17.11S263.59,253,263.59,253Z"
            style="fill:#90CAF9"></path>
        <path
            d="M292.52,256.43a5.3,5.3,0,0,1-.91.84c-.61.51-1.52,1.23-2.68,2.06A69,69,0,0,1,269,269.24c-2.75.84-4.59.8-4.57.65s.44,0,1.22-.15a23.65,23.65,0,0,0,3.24-.85,84.44,84.44,0,0,0,10.23-4.26,83,83,0,0,0,9.56-5.6c1.18-.79,2.12-1.46,2.77-1.92A5.17,5.17,0,0,1,292.52,256.43Z"
            style="fill:#263238"></path>
        <g style="opacity:0.30000000000000004">
            <path
                d="M246.89,284.1a10.1,10.1,0,0,0,18.87,1.13c1.24-2.78,1.16-6,1-9-.51-10.89-1.52-21.76-3-32.55l-3.37-3.09L259,242.51l.9,39.51-6.65,3.66Z">
            </path>
        </g>
        <path
            d="M275.52,295.81a3.6,3.6,0,0,1-.56-.44,18.15,18.15,0,0,1-1.48-1.44,25.37,25.37,0,0,1-4.18-6.31c-2.72-5.82-4.82-14.5-6.08-24.14-.5-3.22-1-6.34-1.42-9.24l0-.16.13-.09c6.24-4.12,11.66-7.67,15.61-10.05,2-1.2,3.55-2.13,4.64-2.76l1.26-.7a1.72,1.72,0,0,1,.46-.21,3.8,3.8,0,0,1-.41.29l-1.22.77-4.57,2.88c-3.89,2.46-9.26,6-15.49,10.2l.11-.25c.45,2.9.93,6,1.43,9.24.38,2.4.74,4.75,1.09,7s.85,4.42,1.35,6.46a63.14,63.14,0,0,0,3.46,10.6,26.59,26.59,0,0,0,4,6.33c.59.67,1.07,1.16,1.4,1.49A4.63,4.63,0,0,1,275.52,295.81Z"
            style="fill:#263238"></path>
        <path
            d="M266.59,279.82a21.12,21.12,0,0,0-2.32,15.6,7,7,0,0,1-.74-2.29,17.3,17.3,0,0,1,1.69-11.33A7.25,7.25,0,0,1,266.59,279.82Z"
            style="fill:#263238"></path>
        <path
            d="M253.74,204c.17-1.07,1.19-1.75,2-2.43a10.62,10.62,0,0,0-3.88-18.48,8.26,8.26,0,0,1-2.68-1c-1.93-1.4-1.47-4.35-2.29-6.58-1.73-4.74-8.64-5.34-11.31-9.61-1.64-2.6-1.3-5.92-1.32-9s-.77-6.63-3.51-8c-1.47-.75-3.26-.72-4.7-1.53-3-1.67-3.06-5.81-4.29-9a11.66,11.66,0,0,0-13.06-6.93s1.87-4.73-3.81-6.81c-6.87-2.51-7.06,2.34-10.3-.51a10.16,10.16,0,0,0-12.67-.26,28.77,28.77,0,0,1-3.27,2.78c-1.5.89-3.3,1.07-5,1.53a15.21,15.21,0,0,0-10.81,15L209,215.13c1.82,7,10.65,12.69,16.87,16.34a11,11,0,0,0,4.2,1.62,9.67,9.67,0,0,0,5.46-1.17,16,16,0,0,0,7.85-9.07,10.22,10.22,0,0,0,11.84-15.7C254.51,206.19,253.55,205.17,253.74,204Z"
            style="fill:#263238"></path>
        <path
            d="M164.22,154.24l-.84-5.05L192.94,139c9.23-2.36,20.74,5.56,22.71,14.88,2.18,10.35,4.44,23.08,4.34,31.06-.19,16-11.92,19.8-11.92,19.8l2.21,15.57-34.62,5.51Z"
            style="fill:#ffbe9d"></path>
        <path
            d="M211.24,167a2,2,0,0,1-1.64,2.31,1.94,1.94,0,0,1-2.34-1.51,2,2,0,0,1,1.64-2.31A1.94,1.94,0,0,1,211.24,167Z"
            style="fill:#263238"></path>
        <path
            d="M213.3,161c-.21.3-1.9-.6-4.06-.28s-3.59,1.63-3.86,1.4.05-.61.67-1.21a5.52,5.52,0,0,1,3-1.45,5.36,5.36,0,0,1,3.28.55C213.12,160.41,213.41,160.85,213.3,161Z"
            style="fill:#263238"></path>
        <path
            d="M190.55,170.07a2,2,0,0,1-1.65,2.31,1.94,1.94,0,0,1-2.33-1.51,2,2,0,0,1,1.64-2.31A2,2,0,0,1,190.55,170.07Z"
            style="fill:#263238"></path>
        <path
            d="M192.09,164.5c-.21.29-1.9-.61-4.06-.29s-3.59,1.64-3.87,1.41c-.13-.1.05-.61.67-1.22a5.59,5.59,0,0,1,3-1.45,5.36,5.36,0,0,1,3.28.55C191.9,163.92,192.2,164.36,192.09,164.5Z"
            style="fill:#263238"></path>
        <path
            d="M202.29,179.4a14,14,0,0,1,3.42-1.15c.55-.14,1-.33,1.09-.72a2.8,2.8,0,0,0-.61-1.58l-2.25-4c-3.14-5.66-5.5-10.35-5.27-10.47s3,4.36,6.1,10l2.19,4a3.21,3.21,0,0,1,.6,2.12,1.38,1.38,0,0,1-.79.94,4,4,0,0,1-.92.27A14.36,14.36,0,0,1,202.29,179.4Z"
            style="fill:#263238"></path>
        <path d="M208.07,204.74a41.92,41.92,0,0,1-22.36-2.49s6.9,10.21,22.92,6.4Z" style="fill:#eb996e"></path>
        <path
            d="M202.14,184.75a3.92,3.92,0,0,0-3.71-.94,3.62,3.62,0,0,0-2.27,1.68,2.28,2.28,0,0,0,.21,2.6,2.62,2.62,0,0,0,2.94.3,8.28,8.28,0,0,0,2.53-2,2.5,2.5,0,0,0,.52-.73.74.74,0,0,0-.12-.81"
            style="fill:#eb996e"></path>
        <path
            d="M196.14,181.82c.35-.07.7,2.28,3,3.65s4.72.75,4.78,1.08c.06.14-.49.54-1.54.72a5.88,5.88,0,0,1-4-.76,5.22,5.22,0,0,1-2.33-3.09C195.8,182.45,196,181.83,196.14,181.82Z"
            style="fill:#263238"></path>
        <path
            d="M191.41,155.93c-.13.62-2.33.66-4.82,1.34s-4.45,1.67-4.86,1.19c-.19-.23.09-.84.83-1.53a8.72,8.72,0,0,1,7.38-1.92C190.92,155.25,191.46,155.64,191.41,155.93Z"
            style="fill:#263238"></path>
        <path
            d="M211.59,154.84c-.31.54-1.87.25-3.67.49s-3.26.81-3.68.35c-.19-.23,0-.76.57-1.32a5.07,5.07,0,0,1,2.86-1.24,5.16,5.16,0,0,1,3.07.56C211.44,154.1,211.73,154.57,211.59,154.84Z"
            style="fill:#263238"></path>
        <path
            d="M209.68,206.55l5.44,11.88H235l11.07,37.1c2.74,32.52,5.85,67.37,5.68,81.1-21.56,12.35-58,11.07-92.82-.09,0,0,5.81-62.39,5.81-63.49s-12.26-45.75-12.26-45.75l16.68-9,1.05-6Z"
            style="fill:#90CAF9"></path>
        <g style="opacity:0.30000000000000004">
            <path
                d="M230.42,290c2.62,1.3,3.67,4.66,3.17,7.55s-2.21,5.4-3.89,7.79c-5,7.11-10.29,14.14-17,19.69s-14.95,9.59-23.64,9.77c-10.76.24-20.92-5.42-28.79-12.76v-7.89L207.51,290Z">
            </path>
        </g>
        <path
            d="M206.16,219.05a6.79,6.79,0,0,0-.27-1.7,36.54,36.54,0,0,0-1.19-4,34.32,34.32,0,0,0-1.66-3.82,6.92,6.92,0,0,0-.88-1.49c-.11.06,1.06,2.41,2.16,5.45S206,219.08,206.16,219.05Z"
            style="fill:#263238"></path>
        <path
            d="M197.09,220.63a6.92,6.92,0,0,0-.23-1.76,33.12,33.12,0,0,0-1.15-4.14,32.45,32.45,0,0,0-1.68-3.95,7,7,0,0,0-.92-1.53c-.11.06,1.12,2.47,2.22,5.61S197,220.65,197.09,220.63Z"
            style="fill:#263238"></path>
        <path
            d="M185.68,222a5.7,5.7,0,0,0,0-1.66,25.36,25.36,0,0,0-.69-3.95,24.34,24.34,0,0,0-1.28-3.79,5.94,5.94,0,0,0-.78-1.47c-.12.05.91,2.36,1.67,5.36S185.56,222,185.68,222Z"
            style="fill:#263238"></path>
        <path
            d="M241.15,249.94a4.67,4.67,0,0,1,.45.77,22.92,22.92,0,0,1,1.14,2.29,47.89,47.89,0,0,1,2.94,9,98.83,98.83,0,0,1,2.07,13.82c.48,5.24.71,11,1.34,17,1.2,12.07,2.33,23,2.73,30.94.21,4,.28,7.2.2,9.42,0,1.11-.09,2-.13,2.56a5.86,5.86,0,0,1-.1.89,5.62,5.62,0,0,1,0-.9c0-.58.06-1.44,0-2.55,0-2.22-.12-5.43-.37-9.39-.49-7.93-1.67-18.85-2.87-30.92-.64-6-.86-11.82-1.31-17.05A104.5,104.5,0,0,0,245.33,262a53.29,53.29,0,0,0-2.77-9c-.41-1-.8-1.8-1.05-2.32A5.33,5.33,0,0,1,241.15,249.94Z"
            style="fill:#263238"></path>
        <path
            d="M251.94,335.67l-91.64,1-1.33-.09c-.68,4.17.5,7.34,4.74,8.87,0,0,28.59,10.37,42.93,8.85s39.9-7.22,39.9-7.22A12.27,12.27,0,0,0,251.94,335.67Z"
            style="fill:#90CAF9"></path>
        <path
            d="M165.5,346.09s-.46-.26-1-.91a7.89,7.89,0,0,1-1.37-2.91,7.7,7.7,0,0,1-.1-3.21c.15-.81.39-1.27.45-1.25a15.15,15.15,0,0,0,.15,4.34A15.8,15.8,0,0,0,165.5,346.09Z"
            style="fill:#263238"></path>
        <path
            d="M175.62,349.25s-.52-.27-1.14-1a8.89,8.89,0,0,1-1.73-3.15,8.74,8.74,0,0,1-.35-3.58,3.06,3.06,0,0,1,.39-1.44,11.93,11.93,0,0,0,2.83,9.13Z"
            style="fill:#263238"></path>
        <path d="M185.37,352.22c-.16,0-.12-2.19-.56-4.83s-1.16-4.69-1-4.75a16,16,0,0,1,1.57,9.58Z" style="fill:#263238">
        </path>
        <path
            d="M198.33,354.24c0,.06-.73.05-1.49-.71a9,9,0,0,1-1.92-3.47,10.87,10.87,0,0,1-.49-3.92,3.63,3.63,0,0,1,.33-1.6,19.72,19.72,0,0,0,.66,5.37,10.75,10.75,0,0,0,1.69,3.37A4.77,4.77,0,0,0,198.33,354.24Z"
            style="fill:#263238"></path>
        <path d="M207.31,354.67c-.16,0,.36-2.39.23-5.33s-.81-5.26-.66-5.3a15.13,15.13,0,0,1,.43,10.63Z"
            style="fill:#263238"></path>
        <path d="M220.62,352.46a22.34,22.34,0,0,0,.2-5.27,22.58,22.58,0,0,0-1.55-5,10.36,10.36,0,0,1,1.35,10.3Z"
            style="fill:#263238"></path>
        <path
            d="M232.9,349.6a18,18,0,0,0,.56-4.75,17.61,17.61,0,0,0-1.23-4.63c.05,0,.43.39.84,1.19a9.23,9.23,0,0,1,.91,3.4,9.08,9.08,0,0,1-.43,3.49A3.06,3.06,0,0,1,232.9,349.6Z"
            style="fill:#263238"></path>
        <path
            d="M243,348.21a9,9,0,0,1,.39-1.38,9,9,0,0,0-.79-6.55,8.91,8.91,0,0,1-.71-1.25c.05,0,.5.3,1,1.05a7.69,7.69,0,0,1,.83,6.86C243.37,347.8,243,348.24,243,348.21Z"
            style="fill:#263238"></path>
        <path
            d="M216.39,289.78a2.27,2.27,0,0,0,.69-.18c.43-.14,1-.39,1.78-.72a24.78,24.78,0,0,0,5.34-3.42,24.53,24.53,0,0,0,4.27-4.68,15.87,15.87,0,0,0,1-1.64,2.78,2.78,0,0,0,.3-.64c-.06,0-.58.83-1.55,2.11a28.48,28.48,0,0,1-4.3,4.54,29,29,0,0,1-5.2,3.47C217.3,289.35,216.37,289.72,216.39,289.78Z"
            style="fill:#90CAF9"></path>
        <path
            d="M204.78,269.41a12.79,12.79,0,0,0,1.6-1.46c1-.92,2.29-2.2,3.78-3.59s2.85-2.62,3.84-3.51a3.48,3.48,0,0,1,1.29-.8c.35-.1.56-.07.56-.1s-.2-.11-.59-.06a3.4,3.4,0,0,0-1.44.74c-1,.84-2.45,2-3.94,3.43s-2.79,2.71-3.7,3.69A10.35,10.35,0,0,0,204.78,269.41Z"
            style="fill:#90CAF9"></path>
        <path
            d="M233,212.68c.37-.32,1.4-3.38,3.73-2.15s1.3,2.69-.19,5.57-5.74,16.38-5.74,16.38,4.63-3,6.57-1,1.2,2.62-.19,4.55l-2,2.81s4.83,3.46,3.49,5.73c0,0,3.39,2.42.39,6s-14.67,12.9-14.67,12.9l-15.05-9.63S213.23,240.66,215,239a7.76,7.76,0,0,1,4.12-1.87Z"
            style="fill:#ffbe9d"></path>
        <polygon points="209.35 253.83 189.95 276.88 202.5 291.62 224.41 263.46 209.35 253.83" style="fill:#ffbe9d">
        </polygon>
        <path
            d="M204.11,249.36l-28,26.89L156.24,225s-20.44,8.43-17.44,33.7C141,277.25,149,307.82,158,315s19.48,14.27,33.21,6.86,42.26-35.13,42.26-35.13S220.86,256,204.11,249.36Z"
            style="fill:#90CAF9"></path>
        <path
            d="M204.11,249.36l.78.36c.26.13.58.25,1,.45l1.27.69a36.06,36.06,0,0,1,7.48,6c5.87,5.95,12.79,16.13,18.76,29.87l0-.16c-5.46,5.24-11.55,10.88-18.27,16.76-3.37,2.93-6.87,5.94-10.6,8.9a114.7,114.7,0,0,1-11.91,8.54,29,29,0,0,1-6.9,3.09,20.76,20.76,0,0,1-7.66.79,24.49,24.49,0,0,1-7.63-2,41.29,41.29,0,0,1-7-4q-1.68-1.17-3.33-2.43a27.9,27.9,0,0,1-3.17-2.64,21.49,21.49,0,0,1-2.55-3.28,38.35,38.35,0,0,1-2.11-3.64,100.21,100.21,0,0,1-6.28-16,191.79,191.79,0,0,1-4.78-18.91q-1-4.71-1.65-9.37a58.28,58.28,0,0,1-.79-9.26,33.91,33.91,0,0,1,1.29-9,30.37,30.37,0,0,1,3.68-8,31.21,31.21,0,0,1,12.63-11.05l-.24-.11L176,276.3l.07.18.14-.13,20.55-19.84,5.47-5.3,1.41-1.37c.32-.31.47-.48.47-.48l-.48.44-1.42,1.34-5.5,5.24L176,276.16l.21,0-19.83-51.29-.07-.18-.17.08a29.89,29.89,0,0,0-7.08,4.63,31.87,31.87,0,0,0-5.73,6.55,30.36,30.36,0,0,0-3.73,8.13,33.91,33.91,0,0,0-1.31,9.06,56.59,56.59,0,0,0,.79,9.33c.46,3.11,1,6.25,1.64,9.39a195.46,195.46,0,0,0,4.79,18.95,100.89,100.89,0,0,0,6.31,16,41.72,41.72,0,0,0,2.13,3.67,22.22,22.22,0,0,0,2.61,3.34,27.14,27.14,0,0,0,3.21,2.68c1.1.84,2.22,1.65,3.34,2.44a42.37,42.37,0,0,0,7.11,4,24.67,24.67,0,0,0,7.76,2,21.09,21.09,0,0,0,7.8-.8,29,29,0,0,0,7-3.14,116.39,116.39,0,0,0,12-8.58c3.72-3,7.23-6,10.59-8.93,6.71-5.89,12.8-11.55,18.25-16.8l.07-.07,0-.09c-6-13.77-13-23.93-18.9-29.87a35.82,35.82,0,0,0-7.56-6l-1.29-.68c-.37-.19-.7-.31-1-.43Z"
            style="fill:#263238"></path>
        <path
            d="M168,298.58c.08,0-.19-1.39-.22-3.62a24.78,24.78,0,0,1,.27-3.91,26.23,26.23,0,0,1,1.18-4.65,26.57,26.57,0,0,1,2.08-4.31,24.62,24.62,0,0,1,2.3-3.18c1.45-1.7,2.53-2.59,2.47-2.66a5.38,5.38,0,0,0-.78.6,19.76,19.76,0,0,0-1.91,1.87,23.08,23.08,0,0,0-2.39,3.17,24.69,24.69,0,0,0-2.15,4.37,25.47,25.47,0,0,0-1.17,4.73,22.58,22.58,0,0,0-.19,4c0,.57.08,1.08.12,1.52a10.88,10.88,0,0,0,.17,1.14A4.16,4.16,0,0,0,168,298.58Z"
            style="fill:#263238"></path>
        <path
            d="M190.6,263.17a2.12,2.12,0,0,0,.34.32l1.05.87c.45.37,1,.83,1.64,1.38s1.36,1.15,2.13,1.87c1.57,1.4,3.36,3.15,5.28,5.16s3.92,4.32,5.9,6.84,3.7,5.05,5.2,7.39,2.73,4.52,3.71,6.38c.51.92.92,1.78,1.3,2.53s.69,1.39.93,1.93l.59,1.22a2.37,2.37,0,0,0,.23.41,2.56,2.56,0,0,0-.15-.45c-.14-.32-.31-.74-.52-1.25s-.51-1.21-.88-2-.75-1.63-1.25-2.56c-.94-1.88-2.18-4.08-3.64-6.45s-3.23-4.89-5.2-7.44-4-4.83-5.95-6.85-3.76-3.73-5.36-5.11c-.78-.71-1.53-1.3-2.18-1.84s-1.21-1-1.69-1.32l-1.09-.81A2.83,2.83,0,0,0,190.6,263.17Z"
            style="fill:#263238"></path>
        <path d="M244.33,115.34C244.64,116.5,255.51,261,255.51,261l6.68.07L249.9,114.35Z" style="fill:#e0e0e0"></path>
        <path
            d="M244.33,115.34l1.33-.26,4.22-.79.08,0v.08c1.51,16.68,6.57,76,12.49,146.59V261l0,.28h-.29l-6.68-.07h-.24l0-.24c-6.07-81-10.71-142.85-10.92-145.64,0,0,0,.27.1.76s.14,1.2.22,2.17c.17,1.93.41,4.76.73,8.41.58,7.33,1.43,17.92,2.48,31,2,26.28,4.8,62.68,7.91,103.22l-.26-.24,6.68.07-.26.28V261c-5.92-70.56-10.81-129.93-12.1-146.63l.08.06-4.2.71Z"
            style="fill:#263238"></path>
        <path
            d="M275.87,233.16s-10.15-17.53-11.12-18.34-15.73-5.5-17.07-4.74-3.71,6.8-3.5,7.67,2,1.94,2,1.94.25,3.44,2.15,4.68a3.74,3.74,0,0,0,1.35,4.1l2.19,1.59s-1.27,1.73-.4,2.93,2.45,1.82,3.18,1.37.34-1,.34-1l6.87-.49.32,3.6c-.08-.44,6.05,6.36,6.05,6.36l2.12,5.92,10.93-6.91Z"
            style="fill:#ffbe9d"></path>
        <path
            d="M259.06,215.59a7.42,7.42,0,0,1-1.86.22,38.83,38.83,0,0,0-4.42.48,15.36,15.36,0,0,0-4.18,1.37,16.74,16.74,0,0,1-1.63.88,4.2,4.2,0,0,1,1.45-1.2,12.61,12.61,0,0,1,4.26-1.56,23.81,23.81,0,0,1,4.51-.34A6.66,6.66,0,0,1,259.06,215.59Z"
            style="fill:#eb996e"></path>
        <path
            d="M260,220.1a6.26,6.26,0,0,1-1.75.58c-1.09.29-2.61.65-4.25,1.15a22.08,22.08,0,0,0-4,1.66,10.23,10.23,0,0,1-1.6.88,4.73,4.73,0,0,1,1.41-1.2,16.66,16.66,0,0,1,4.07-1.84,37.25,37.25,0,0,1,4.32-1A6.61,6.61,0,0,1,260,220.1Z"
            style="fill:#eb996e"></path>
        <path d="M260.47,225.89a40.9,40.9,0,0,1-8.74,3.38,43,43,0,0,1,8.74-3.38Z" style="fill:#eb996e"></path>
        <path d="M249.94,214.23c.15,0,.26.58.25,1.28s-.14,1.28-.28,1.28-.25-.58-.24-1.28S249.8,214.23,249.94,214.23Z"
            style="fill:#eb996e"></path>
        <path d="M252.69,216c0,.14-.55.38-1.27.15s-1.07-.77-1-.86.54.19,1.12.36S252.67,215.9,252.69,216Z"
            style="fill:#eb996e"></path>
        <path d="M246.6,220.93c-.08.12-.62-.26-.65-1s.47-1.17.57-1.06-.09.51-.05,1S246.71,220.83,246.6,220.93Z"
            style="fill:#90CAF9"></path>
        <path
            d="M267.68,229.81a9.88,9.88,0,0,0-.53-2.24c-.53-1.16-1.49-1.69-1.42-1.83s.32,0,.71.24a3.24,3.24,0,0,1,1.18,1.36,3.29,3.29,0,0,1,.32,1.77C267.89,229.58,267.74,229.83,267.68,229.81Z"
            style="fill:#eb996e"></path>
        <path d="M266.37,222.75c-.14,0-.1-.81-.5-1.65s-1-1.32-.92-1.45.93.22,1.39,1.23S266.51,222.8,266.37,222.75Z"
            style="fill:#eb996e"></path>
        <path d="M265.26,218c-.14,0-.18-.71-.61-1.4s-1-1.07-1-1.21.89.07,1.41.94S265.4,218,265.26,218Z"
            style="fill:#eb996e"></path>
        <path
            d="M245.14,266.29c-.83,4.56-2.8,20.13,8.37,23a8.4,8.4,0,0,0,1.42.07c1.94-.15,9.73-1.48,8.81-13.42-.84-10.91-2.35-27.56-2.92-33.68a2.2,2.2,0,0,0-2.56-2l-3,.5a2.21,2.21,0,0,0-1.83,2.39c.62,6.32,2.44,25.25,2.55,27.23.15,2.59,1.79,10.4-1.22,11.65s-4.24-8.59-3.87-14.62a2.14,2.14,0,0,0-.63-1.67,4,4,0,0,0-3.23-1.29A2.18,2.18,0,0,0,245.14,266.29Z"
            style="fill:#455a64"></path>
        <path
            d="M214.62,142.51a26.58,26.58,0,0,0-15.2-8.28l-25.25,5.39-6.61,4.79c-.62-1.57-1-2.54-1-2.54-2.56-1.64-9.47-4.86-14.74,1.68-1.9,2.37-3.15,8.32-2.94,11.35.08,1.14.3,2.53-.6,3.24a3.19,3.19,0,0,1-1.1.47,13.22,13.22,0,0,0-8.38,15.94,3.4,3.4,0,0,1,.25,1.29,3.56,3.56,0,0,1-1,1.79,11.3,11.3,0,0,0-.72,12.68,13.63,13.63,0,0,1,2.06,3.62c.6,2.42-1,4.76-2.22,6.94-3.64,6.54-3.76,15.59,1.6,20.8,1.31,1.27,2.94,2.36,3.54,4.08a10.56,10.56,0,0,1,.36,2.63c.35,4.5,3.15,9.32,7.62,9.89,2.48.32,5.38-.62,7.27,1a10.81,10.81,0,0,1,1.8,2.72,8.85,8.85,0,0,0,16.19-6.55,12.48,12.48,0,0,0,6.93-12.57s-3.34-15.61-2.29-20-2.57-13.25-4.57-17.53-.94-14.73-.85-18.86a15.11,15.11,0,0,0-.64-3.47h0c-.27-1-.59-2.08-1-3.26a29.85,29.85,0,0,1-.37-3.29,5.84,5.84,0,0,1,7.15-6,9.35,9.35,0,0,0,2.79.26,9.8,9.8,0,0,0,7.56-4.41,14.13,14.13,0,0,0,14.23,2.62,38.18,38.18,0,0,0,7.26,7.11,13,13,0,0,0,9.62,2.42A26.59,26.59,0,0,0,214.62,142.51Z"
            style="fill:#263238"></path>
        <path
            d="M212.36,147.3c-.05,0,0-.58-.2-1.6a10.23,10.23,0,0,0-1.66-4,9.4,9.4,0,0,0-5.24-3.78,9.87,9.87,0,0,0-7.89,1.17l-.18.11L197,139a15,15,0,0,0-3.73-2.75,14.87,14.87,0,0,0-9.67-1.34,14.55,14.55,0,0,0-7.08,3.8,15.58,15.58,0,0,0-3.21,4.45c-.54,1.19-.73,1.9-.79,1.88a3.41,3.41,0,0,1,.12-.52,9.39,9.39,0,0,1,.49-1.44,14.89,14.89,0,0,1,10.37-8.64,15.14,15.14,0,0,1,10,1.35,14.9,14.9,0,0,1,3.87,2.86l-.32,0a10.26,10.26,0,0,1,8.29-1.17,9.65,9.65,0,0,1,5.4,4,9.85,9.85,0,0,1,1.56,4.21,6.2,6.2,0,0,1,.06,1.21A1.69,1.69,0,0,1,212.36,147.3Z"
            style="fill:#455a64"></path>
        <path
            d="M140.41,174.72a32.84,32.84,0,0,0,6.06-1.3,24.25,24.25,0,0,0,11.83-8.66l.51-.73.08-.1.11,0a13.55,13.55,0,0,0,7.07-3.1,14.89,14.89,0,0,0,3.91-5,16.34,16.34,0,0,0,1.45-5.67,1.2,1.2,0,0,1,0,.41,10.34,10.34,0,0,1,0,1.18A13.1,13.1,0,0,1,170.3,156a14.66,14.66,0,0,1-3.93,5.19,13.76,13.76,0,0,1-7.31,3.26l.19-.11-.53.74a23.8,23.8,0,0,1-12.14,8.71,21,21,0,0,1-4.49.91c-.54.06-1,0-1.24.06A1.15,1.15,0,0,1,140.41,174.72Z"
            style="fill:#455a64"></path>
    </g>
</svg>